# xmcd CD database file
#
# Track frame offsets:
#	150
#	17058
#	30150
#	44570
#	60336
#	78163
#	93717
#	106846
#	123096
#	133243
#	148369
#	167310
#	182810
#	201090
#	219498
#	234674
#	249805
#	268241
#	281887
#	301714
#
# Disc length: 4160 seconds
#
# Revision: 0
# Processed by: cddbd v1.4PL0 Copyright (c) Steve Scherf et al.
# Submitted via: CDex 1.50beta10
#
DISCID=14103e14
DTITLE=Menuhin and Grappelli - Menuhin and Grappelli Play Berlin, Kern, Porter and Rodgers and Hart
DYEAR=1988
DGENRE=Jazz
TTITLE0=Cheek to Cheek
TTITLE1=Isn't This a Lovely Day?
TTITLE2=The Piccolino
TTITLE3=Change Partners
TTITLE4=Top Hat
TTITLE5=I've Got My Love to Keep Me Warm
TTITLE6=Heat Wave
TTITLE7=The Way You Look Tonight
TTITLE8=Pick Yourself Up
TTITLE9=A Fine Romance
TTITLE10=All the Things You Are
TTITLE11=Why Do I Love You?
TTITLE12=I Get a Kick Out of You
TTITLE13=Night and Day
TTITLE14=Looking at You
TTITLE15=Just One of Those Things
TTITLE16=My Funny Valentine
TTITLE17=Thou Swell
TTITLE18=The Lady Is a Tramp
TTITLE19=The Blue Room
EXTD=YEAR: 1988
EXTT0=
EXTT1=
EXTT2=
EXTT3=
EXTT4=
EXTT5=
EXTT6=
EXTT7=
EXTT8=
EXTT9=
EXTT10=
EXTT11=
EXTT12=
EXTT13=
EXTT14=
EXTT15=
EXTT16=
EXTT17=
EXTT18=
EXTT19=
PLAYORDER=
